<svg width="2386" height="337" viewBox="0 0 2386 337" fill="none" xmlns="http://www.w3.org/2000/svg">
<path d="M4.3029e-05 326.647V259.522L75.432 184.763C90.0994 170.395 102.746 157.449 113.373 145.925C123.999 134.251 129.312 123.849 129.312 114.719C129.312 107.835 127.516 102.596 123.924 99.0044C120.332 95.2628 115.393 93.392 109.107 93.392C104.168 93.392 99.9025 94.4396 96.3106 96.5349C92.7185 98.4806 89.5007 101.474 86.657 105.515C83.8134 109.556 81.3439 113.821 79.2485 118.311C77.3029 122.801 76.33 125.046 76.33 125.046L0.449043 88.0039C0.449043 88.0039 2.99338 82.2418 8.08204 70.7174C13.1707 59.0434 20.654 47.5939 30.532 36.3689C40.5597 24.9943 53.431 16.0891 69.146 9.65345C85.0107 3.21778 102.971 -4.8697e-05 123.026 -4.8697e-05C159.096 -4.8697e-05 186.709 8.53095 205.867 25.5929C225.024 42.5053 234.603 64.8805 234.603 92.7184C234.603 110.529 229.589 127.666 219.561 144.129C209.683 160.443 196.737 176.906 180.723 193.519L135.823 239.99H245.379V326.647H4.3029e-05ZM392.181 331.811C352.968 331.811 320.939 316.171 296.094 284.89C271.399 253.61 259.052 213.948 259.052 165.905C259.052 117.114 271.474 77.3028 296.319 46.4715C321.313 15.4905 353.267 -4.8697e-05 392.181 -4.8697e-05C431.244 -4.8697e-05 463.272 15.715 488.266 47.145C513.411 78.5749 525.983 118.162 525.983 165.905C525.983 212.901 513.485 252.338 488.491 284.217C463.646 315.946 431.543 331.811 392.181 331.811ZM392.405 237.521C402.582 237.521 409.991 232.582 414.63 222.704C419.42 212.676 421.814 193.893 421.814 166.354C421.814 138.067 419.27 118.985 414.182 109.107C409.093 99.2289 401.684 94.2899 391.956 94.2899C382.976 94.2899 375.867 99.4534 370.629 109.78C365.54 120.107 362.996 138.816 362.996 165.905C362.996 191.947 365.39 210.431 370.18 221.357C375.119 232.133 382.527 237.521 392.405 237.521ZM530.557 326.647V259.522L605.989 184.763C620.656 170.395 633.303 157.449 643.929 145.925C654.556 134.251 659.869 123.849 659.869 114.719C659.869 107.835 658.073 102.596 654.481 99.0044C650.889 95.2628 645.95 93.392 639.664 93.392C634.725 93.392 630.459 94.4396 626.867 96.5349C623.275 98.4806 620.057 101.474 617.214 105.515C614.37 109.556 611.901 113.821 609.805 118.311C607.86 122.801 606.887 125.046 606.887 125.046L531.006 88.0039C531.006 88.0039 533.55 82.2418 538.639 70.7174C543.727 59.0434 551.211 47.5939 561.089 36.3689C571.116 24.9943 583.988 16.0891 599.703 9.65345C615.567 3.21778 633.527 -4.8697e-05 653.583 -4.8697e-05C689.652 -4.8697e-05 717.266 8.53095 736.423 25.5929C755.581 42.5053 765.159 64.8805 765.159 92.7184C765.159 110.529 760.145 127.666 750.118 144.129C740.24 160.443 727.294 176.906 711.279 193.519L666.379 239.99H775.935V326.647H530.557ZM909.492 331.811C883.899 331.811 863.02 328.668 846.856 322.382C830.692 315.946 818.045 308.164 808.916 299.034C799.786 289.755 792.826 279.053 788.037 266.93C783.248 254.807 780.853 248.746 780.853 248.746L858.53 222.255C858.53 222.255 859.054 223.677 860.102 226.52C861.299 229.214 863.02 232.283 865.265 235.725C867.66 239.167 871.401 242.61 876.49 246.052C881.728 249.494 888.538 251.215 896.92 251.215C905.9 251.215 913.009 249.045 918.247 244.705C923.635 240.365 926.329 233.854 926.329 225.173C926.329 216.942 924.009 210.731 919.37 206.54C914.88 202.2 908.294 200.029 899.614 200.029H865.714V128.414H899.614C907.097 128.414 913.158 126.319 917.798 122.128C922.438 117.937 924.758 112.4 924.758 105.515C924.758 97.7323 922.513 91.8953 918.023 88.0039C913.682 83.9629 907.621 81.9425 899.838 81.9425C894.001 81.9425 888.912 83.3643 884.572 86.2079C880.232 88.9019 876.789 91.9701 874.245 95.4124C871.701 98.7051 869.605 101.923 867.959 105.066C866.462 108.059 865.714 109.556 865.714 109.556L792.527 80.82C792.527 80.82 794.997 75.3571 799.936 64.4314C805.024 53.5058 812.807 42.8794 823.284 32.5524C833.76 22.0758 846.183 14.0686 860.551 8.53095C874.919 2.84362 892.579 -4.8697e-05 913.533 -4.8697e-05C944.214 -4.8697e-05 968.834 6.88462 987.393 20.654C1005.95 34.4233 1015.23 53.8051 1015.23 78.7994C1015.23 93.9158 1011.19 107.685 1003.11 120.107C995.176 132.53 983.352 142.034 967.637 148.619C986.495 152.66 1001.46 161.79 1012.54 176.008C1023.76 190.226 1029.37 207.438 1029.37 227.643C1029.37 258.774 1018.75 283.918 997.496 303.075C976.393 322.232 947.058 331.811 909.492 331.811ZM1144.35 215.295V130.659H1269.62V215.295H1144.35ZM1377.25 326.647V259.522L1452.69 184.763C1467.35 170.395 1480 157.449 1490.63 145.925C1501.25 134.251 1506.57 123.849 1506.57 114.719C1506.57 107.835 1504.77 102.596 1501.18 99.0044C1497.59 95.2628 1492.65 93.392 1486.36 93.392C1481.42 93.392 1477.16 94.4396 1473.57 96.5349C1469.97 98.4806 1466.76 101.474 1463.91 105.515C1461.07 109.556 1458.6 113.821 1456.5 118.311C1454.56 122.801 1453.58 125.046 1453.58 125.046L1377.7 88.0039C1377.7 88.0039 1380.25 82.2418 1385.34 70.7174C1390.43 59.0434 1397.91 47.5939 1407.79 36.3689C1417.81 24.9943 1430.69 16.0891 1446.4 9.65345C1462.27 3.21778 1480.23 -4.8697e-05 1500.28 -4.8697e-05C1536.35 -4.8697e-05 1563.96 8.53095 1583.12 25.5929C1602.28 42.5053 1611.86 64.8805 1611.86 92.7184C1611.86 110.529 1606.84 127.666 1596.82 144.129C1586.94 160.443 1573.99 176.906 1557.98 193.519L1513.08 239.99H1622.63V326.647H1377.25ZM1769.44 331.811C1730.22 331.811 1698.19 316.171 1673.35 284.89C1648.65 253.61 1636.31 213.948 1636.31 165.905C1636.31 117.114 1648.73 77.3028 1673.57 46.4715C1698.57 15.4905 1730.52 -4.8697e-05 1769.44 -4.8697e-05C1808.5 -4.8697e-05 1840.53 15.715 1865.52 47.145C1890.67 78.5749 1903.24 118.162 1903.24 165.905C1903.24 212.901 1890.74 252.338 1865.75 284.217C1840.9 315.946 1808.8 331.811 1769.44 331.811ZM1769.66 237.521C1779.84 237.521 1787.25 232.582 1791.89 222.704C1796.67 212.676 1799.07 193.893 1799.07 166.354C1799.07 138.067 1796.53 118.985 1791.44 109.107C1786.35 99.2289 1778.94 94.2899 1769.21 94.2899C1760.23 94.2899 1753.12 99.4534 1747.88 109.78C1742.79 120.107 1740.25 138.816 1740.25 165.905C1740.25 191.947 1742.65 210.431 1747.43 221.357C1752.37 232.133 1759.78 237.521 1769.66 237.521ZM1907.81 326.647V259.522L1983.24 184.763C1997.91 170.395 2010.56 157.449 2021.18 145.925C2031.81 134.251 2037.12 123.849 2037.12 114.719C2037.12 107.835 2035.33 102.596 2031.74 99.0044C2028.14 95.2628 2023.2 93.392 2016.92 93.392C2011.98 93.392 2007.71 94.4396 2004.12 96.5349C2000.53 98.4806 1997.31 101.474 1994.47 105.515C1991.62 109.556 1989.16 113.821 1987.06 118.311C1985.11 122.801 1984.14 125.046 1984.14 125.046L1908.26 88.0039C1908.26 88.0039 1910.8 82.2418 1915.89 70.7174C1920.98 59.0434 1928.47 47.5939 1938.34 36.3689C1948.37 24.9943 1961.24 16.0891 1976.96 9.65345C1992.82 3.21778 2010.78 -4.8697e-05 2030.84 -4.8697e-05C2066.91 -4.8697e-05 2094.52 8.53095 2113.68 25.5929C2132.84 42.5053 2142.41 64.8805 2142.41 92.7184C2142.41 110.529 2137.4 127.666 2127.37 144.129C2117.49 160.443 2104.55 176.906 2088.53 193.519L2043.63 239.99H2153.19V326.647H1907.81ZM2175.31 294.768L2273.86 93.8409H2157.8V5.16345H2385.66C2385.66 52.7574 2385.66 76.5544 2385.66 76.5544C2385.66 76.5544 2384.77 78.6498 2382.97 82.8404L2266.68 336.75L2175.31 294.768Z" fill="white"/>
</svg>
