<svg width="24" height="24" viewBox="0 0 24 24" fill="currentColor" xmlns="http://www.w3.org/2000/svg">
  <!-- Просто удаляем тег <g> с clip-path и сам <defs> -->
  <path d="M3 19V17C3 16.4477 3.44772 16 4 16C4.55228 16 5 16.4477 5 17V19C5 19.2652 5.10543 19.5195 5.29297 19.707C5.48051 19.8946 5.73478 20 6 20H18C18.2652 20 18.5195 19.8946 18.707 19.707C18.8946 19.5195 19 19.2652 19 19V17C19 16.4477 19.4477 16 20 16C20.5523 16 21 16.4477 21 17V19C21 19.7957 20.6837 20.5585 20.1211 21.1211C19.5585 21.6837 18.7957 22 18 22H6C5.20435 22 4.44152 21.6837 3.87891 21.1211C3.3163 20.5585 3 19.7956 3 19ZM11 4C11 3.44772 11.4477 3 12 3C12.5523 3 13 3.44772 13 4V13.5859L16.293 10.293C16.6835 9.90244 17.3165 9.90244 17.707 10.293C18.0976 10.6835 18.0976 11.3165 17.707 11.707L12.707 16.707C12.3165 17.0976 11.6835 17.0976 11.293 16.707L6.29297 11.707C5.90244 11.3165 5.90244 10.6835 6.29297 10.293C6.68349 9.90244 7.31651 9.90244 7.70703 10.293L11 13.5859V4Z" 
        fill="currentColor"/>
</svg>
