<svg width="24" height="24" viewBox="0 0 24 24" fill="none" xmlns="http://www.w3.org/2000/svg">
<g clip-path="url(#clip0_76_142)">
<path d="M12 0C18.6274 0 24 5.37258 24 12C24 18.6274 18.6274 24 12 24C5.37258 24 0 18.6274 0 12C0 5.37258 5.37258 0 12 0Z" fill="#00247D"/>
<path d="M19.5537 2.67773C20.2025 3.20408 20.7949 3.79659 21.3213 4.44531L13.7676 12L21.3213 19.5537C20.7949 20.2025 20.2025 20.7949 19.5537 21.3213L12 13.7676L4.44531 21.3213C3.79659 20.7949 3.20408 20.2025 2.67773 19.5537L10.2324 12L2.67773 4.44531C3.20409 3.7966 3.7966 3.20409 4.44531 2.67773L12 10.2324L19.5537 2.67773Z" fill="white"/>
<path d="M20.123 3.16797C20.3684 3.39378 20.6042 3.62966 20.8301 3.875L12.707 11.999L20.8301 20.1221C20.6042 20.3674 20.3684 20.6033 20.123 20.8291L12 12.7061L3.87598 20.8291C3.63063 20.6033 3.39476 20.3674 3.16895 20.1221L11.293 11.999L3.16895 3.875C3.39476 3.62966 3.63063 3.39378 3.87598 3.16797L12 11.292L20.123 3.16797Z" fill="#CF142B"/>
<path d="M12 0C12.7691 0 13.5212 0.0726786 14.25 0.210938V9.75H23.7881C23.9264 10.4789 24 11.2309 24 12C24 12.7691 23.9264 13.5211 23.7881 14.25H14.25V23.7881C13.5211 23.9264 12.7691 24 12 24C11.2309 24 10.4789 23.9264 9.75 23.7881V14.25H0.211914C0.0736331 13.5211 0 12.7691 0 12C0 11.2309 0.0736331 10.4789 0.211914 9.75H9.75V0.210938C10.4788 0.0726786 11.2309 0 12 0Z" fill="white"/>
<path d="M12 0C12.4221 0 12.8392 0.0209571 13.25 0.0634766V10.75H23.9355C23.9781 11.1609 24 11.5779 24 12C24 12.4221 23.9781 12.8391 23.9355 13.25H13.25V23.9355C12.8391 23.9781 12.4221 24 12 24C11.5779 24 11.1609 23.9781 10.75 23.9355V13.25H0.0644531C0.0219269 12.8391 0 12.4221 0 12C0 11.5779 0.0219269 11.1609 0.0644531 10.75H10.75V0.0634766C11.1608 0.0209571 11.5779 0 12 0Z" fill="#CF142B"/>
</g>
<defs>
<clipPath id="clip0_76_142">
<rect width="24" height="24" fill="white"/>
</clipPath>
</defs>
</svg>
