<svg width="24" height="24" viewBox="0 0 24 24" fill="none" xmlns="http://www.w3.org/2000/svg">
<g clip-path="url(#clip0_76_138)">
<path d="M12 0C6.77512 0 2.33017 3.33923 0.682823 8H23.3172C21.6698 3.33923 17.2249 0 12 0Z" fill="white"/>
<path d="M23.3172 16C23.7594 14.7489 24 13.4025 24 12C24 10.5975 23.7594 9.25112 23.3172 8H0.682823C0.240617 9.25112 0 10.5975 0 12C0 13.4025 0.240617 14.7489 0.682823 16H23.3172Z" fill="#0039A6"/>
<path d="M12 24C17.2249 24 21.6698 20.6608 23.3172 16H0.682823C2.33017 20.6608 6.77512 24 12 24Z" fill="#D52B1E"/>
</g>
<defs>
<clipPath id="clip0_76_138">
<rect width="24" height="24" fill="white"/>
</clipPath>
</defs>
</svg>
