<svg width="512" height="512" viewBox="0 0 512 512" fill="none" xmlns="http://www.w3.org/2000/svg">
<g clip-path="url(#clip0_40011883_104778)">
<path d="M242.632 0H269.125C272.365 1.01145 276.683 0.763995 280.098 1.03933C282.47 1.23061 284.765 1.4756 287.128 1.75826C298.503 3.12713 309.773 5.27263 320.858 8.17978C388.358 25.8668 445.75 70.2658 479.828 131.158C494.033 156.63 503.77 184.347 508.615 213.106C509.562 218.882 510.325 224.686 510.905 230.51C511.157 233.249 511.293 239.496 512 241.848V270.203C511.303 272.825 511.322 275.94 511.122 278.66C510.1 292.47 507.63 306.34 504.235 319.745C487.722 383.762 447.147 438.943 390.965 473.79C363.657 490.78 333.358 502.4 301.693 508.022C296.193 509.032 290.662 509.883 285.115 510.575C282.535 510.88 273.297 511.353 271.612 512H240.568C238.876 511.41 231.072 510.98 228.811 510.747C223.941 510.222 219.09 509.538 214.265 508.693C188.635 504.525 163.797 496.445 140.621 484.735C75.9127 452.062 28.0638 393.52 8.92173 323.605C6.02628 312.99 3.2566 299.78 1.89095 288.9C1.52971 286.005 1.25238 283.103 1.05929 280.193C0.900365 277.728 0.791573 271.522 0 269.392V242.64C0.749635 240.595 1.04868 231.108 1.31663 228.324C1.82424 223.22 2.52698 218.137 3.4233 213.087C8.86113 180.6 19.6505 152.615 36.168 124.345C46.477 107.081 58.8408 91.1305 72.9883 76.842C105.632 43.1998 146.995 19.3055 192.446 7.83383C207.318 4.06595 222.795 1.40047 238.132 0.67233C239.558 0.604608 241.27 0.401787 242.632 0Z" fill="#007AB9"/>
<path d="M337.95 193.858C355.515 193.124 374.932 199.813 387.292 212.47C407.835 233.504 409.03 261.134 409.01 288.652L409.005 382.149L347.755 382.119L347.765 295.914C347.777 278.792 348.96 255.177 331.452 245.528C324.59 241.746 314.145 241.314 306.725 243.623C297.565 246.476 291.142 253.152 286.762 261.499C282.617 270.564 283.395 280.524 283.397 290.277V358.707C283.397 366.357 283.252 374.557 283.445 382.144C263.26 381.807 242.431 382.209 222.157 382.114C222.5 364.119 222.295 345.559 222.372 327.494C222.618 284.367 222.563 241.237 222.207 198.11C242.454 197.856 263.18 198.062 283.452 198.063C283.177 206.306 283.86 216.392 283.212 224.423C285.71 220.658 288.222 217.135 291.24 213.766C300.395 203.444 312.922 196.713 326.582 194.78C330.142 194.242 334.34 194.061 337.95 193.858Z" fill="#F2F2F2"/>
<path d="M127.188 198.135C147.22 197.726 168.296 198.062 188.413 198.064C188.033 207.663 188.343 219.007 188.343 228.761L188.344 349.229C188.341 359.629 188.042 371.889 188.4 382.147L127.147 382.117C127.354 374.917 127.206 367.067 127.207 359.832L127.188 198.135Z" fill="#F2F2F2"/>
<path d="M155.075 109.602C163.452 108.463 174.301 111.523 180.881 116.831C193.95 127.283 196.08 148.045 185.438 160.976C179.236 168.512 170.842 171.781 161.339 172.713C151.172 173.057 143.104 171.993 134.824 165.414C121.592 154.9 119.907 134.028 130.639 121.175C136.886 113.694 145.571 110.419 155.075 109.602Z" fill="#F2F2F2"/>
</g>
<defs>
<clipPath id="clip0_40011883_104778">
<rect width="512" height="512" fill="white"/>
</clipPath>
</defs>
</svg>
