<svg width="2084" height="2084" viewBox="0 0 2084 2084" fill="none" xmlns="http://www.w3.org/2000/svg">
<style>
    /* Цвет для светлой темы (темный логотип) */
    .logo-path { 
      fill: #2a2a2a; 
    } 

    /* Цвет для темной темы (белый логотип) */
    @media (prefers-color-scheme: dark) {
      .logo-path { 
        fill: #ffffff; 
      }
    }
  </style>
<path class="logo-path" fill-rule="evenodd" clip-rule="evenodd" d="M1042 2084C466.519 2084 0 1617.48 0 1042C0 466.519 466.519 0 1042 0C1617.48 0 2084 466.519 2084 1042C2084 1617.48 1617.48 2084 1042 2084ZM1042 126C1547.89 126 1958 536.107 1958 1042C1958 1073.58 1956.4 1104.79 1953.28 1135.54L1792.04 974.3C1665.9 848.161 1461.39 848.161 1335.25 974.3L1181.37 1128.18C1104.44 1205.11 979.705 1205.11 902.771 1128.18L748.896 974.3C622.756 848.161 418.244 848.16 292.104 974.3L130.731 1135.67C127.603 1104.87 126 1073.62 126 1042C126 536.107 536.107 126 1042 126ZM1424.34 1063.4C1501.28 986.462 1626.01 986.462 1702.94 1063.4L1925.23 1285.68C1912.79 1330.88 1896.97 1374.67 1878.07 1416.78L1611.92 1150.63C1584.07 1124.78 1540.53 1125.4 1513.44 1152.49L1359.56 1306.37C1357.99 1307.94 1356.41 1309.49 1354.82 1311.03L1317.07 1348.79C1165.15 1500.71 918.849 1500.71 766.936 1348.79L568.788 1150.64C540.943 1124.78 497.393 1125.39 470.296 1152.49L205.954 1416.83C187.055 1374.74 171.241 1330.97 158.799 1285.8L381.2 1063.4C458.133 986.462 582.867 986.462 659.8 1063.4L813.676 1217.27C939.815 1343.41 1144.33 1343.41 1270.47 1217.27L1424.34 1063.4Z"/>
</svg>
