<svg width="512" height="512" viewBox="0 0 512 512" fill="none" xmlns="http://www.w3.org/2000/svg">
<g clip-path="url(#clip0_40011883_104792)">
<path d="M256 0C397.385 0 512 114.615 512 256C512 397.385 397.385 512 256 512C114.615 512 0 397.385 0 256C0 114.615 114.615 0 256 0ZM186.291 129C146.766 129 114.889 160.891 114.889 200.261V311.739C114.889 351.109 146.907 383 186.291 383H325.694C365.078 383 397.111 351.109 397.111 311.739V200.261C397.111 181.352 389.617 163.29 376.212 149.898C362.82 136.479 344.617 129 325.694 129H186.291ZM341.653 202.383C344.461 202.665 347.157 203.949 349.118 206.052C352.646 210.144 352.646 216.07 349.273 220.162L348.145 221.291L284.489 272.232C276.601 278.441 266.85 281.828 256.846 281.828C246.813 281.828 237.231 278.441 229.329 272.232L165.123 222.138L163.274 220.304C160.043 216.07 160.467 210.002 164.276 206.192C167.931 202.382 173.999 201.96 178.388 205.205L241.888 256.005C250.199 262.792 261.926 262.792 270.11 256.005L333.737 205.205C335.868 203.23 338.69 202.228 341.653 202.383Z" fill="white"/>
</g>
<defs>
<clipPath id="clip0_40011883_104792">
<rect width="512" height="512" fill="white"/>
</clipPath>
</defs>
</svg>
