<svg width="512" height="512" viewBox="0 0 512 512" fill="none" xmlns="http://www.w3.org/2000/svg">
<g clip-path="url(#clip0_40011883_104789)">
<path d="M256 0C397.385 0 512 114.615 512 256C512 397.385 397.385 512 256 512C114.615 512 0 397.385 0 256C0 114.615 114.615 0 256 0ZM219.713 149.128C181.953 111.378 174.519 89.5497 126.562 137.511C121.742 143.503 63.8397 181.618 197.662 315.403C331.471 449.175 369.546 391.234 375.539 386.418C423.381 338.59 401.678 331.026 363.918 293.276C324.751 254.136 310.795 325.283 249.279 263.785C187.763 202.286 258.88 188.285 219.713 149.128Z" fill="white"/>
</g>
<defs>
<clipPath id="clip0_40011883_104789">
<rect width="512" height="512" fill="white"/>
</clipPath>
</defs>
</svg>
