<svg width="512" height="512" viewBox="0 0 512 512" fill="none" xmlns="http://www.w3.org/2000/svg">
<g clip-path="url(#clip0_40011883_104775)">
<circle cx="256" cy="256" r="256" fill="#27A6E5"/>
<path d="M358.163 154.346C363.51 153.494 370.935 155.275 373.173 160.54C376.33 167.98 374.065 179.795 373.135 187.66C371.923 197.571 370.593 207.468 369.145 217.348C365.185 244.202 360.918 271.009 356.345 297.767C353.898 312.212 351.363 326.642 348.735 341.057C346.705 352.339 344.098 377.862 332.4 383.117C318.468 389.377 300.623 373.934 289.618 366.509C278.633 359.209 267.688 351.844 256.783 344.419L238.469 332.082C219.769 319.612 207.286 312.409 228.463 293.379C232.639 289.627 237.296 284.742 241.506 280.792C256.34 267.037 271.068 253.164 285.683 239.178C291.888 233.124 298.178 227.107 303.98 220.652C306.153 218.232 308.938 213.243 303.93 212.025C300.945 211.299 298.568 212.762 296.135 214.267C293.323 215.77 289.073 218.711 286.28 220.532L268.705 232.063L211.017 270.677C203.405 275.804 195.807 281.104 188.047 285.992C179.164 291.379 169.401 295.037 158.858 293.157C141.157 290.002 123.274 284.227 106.382 278.137C92.4158 273.102 94.785 263.429 106.545 257.612C114.005 253.919 121.999 250.672 129.781 247.289L173.227 228.436C211.706 211.522 250.39 195.078 289.273 179.108C301.378 174.029 313.555 169.119 325.798 164.379C334.473 161.032 349.07 155.316 358.163 154.346Z" fill="#FEFEFE"/>
</g>
<defs>
<clipPath id="clip0_40011883_104775">
<rect width="512" height="512" fill="white"/>
</clipPath>
</defs>
</svg>
